<?xml version="1.0" standalone="no"?>
<!DOCTYPE svg PUBLIC "-//W3C//DTD SVG 20010904//EN"
 "http://www.w3.org/TR/2001/REC-SVG-20010904/DTD/svg10.dtd">
<svg version="1.0" xmlns="http://www.w3.org/2000/svg"
 width="495.000000pt" height="385.000000pt" viewBox="0 0 495.000000 385.000000"
 preserveAspectRatio="xMidYMid meet">

<g transform="translate(0.000000,385.000000) scale(0.100000,-0.100000)"
fill="#000000" stroke="none">
<path d="M2415 3051 c-99 -27 -176 -88 -218 -175 -15 -30 -27 -60 -27 -65 0
-8 -134 -11 -434 -11 -423 0 -434 0 -460 -21 -29 -23 -33 -54 -10 -87 l15 -22
445 0 c364 0 444 -2 444 -13 0 -29 63 -137 96 -166 51 -45 125 -80 186 -87
151 -18 306 78 354 220 l16 46 327 0 c305 0 329 1 344 18 25 28 21 67 -9 91
-26 20 -38 21 -344 21 l-318 0 -22 54 c-48 118 -154 193 -286 201 -38 2 -82 1
-99 -4z m188 -151 c19 -13 47 -42 62 -65 24 -36 26 -48 23 -112 -3 -62 -7 -77
-34 -110 -83 -104 -224 -109 -311 -10 -85 97 -58 243 57 305 60 31 150 28 203
-8z"/>
<path d="M1739 2247 c-117 -33 -197 -112 -233 -229 -5 -16 -19 -18 -104 -18
-85 0 -103 -3 -126 -21 -29 -23 -33 -54 -10 -87 14 -20 23 -22 124 -22 l108 0
16 -47 c55 -160 237 -256 397 -210 111 33 190 105 227 209 l17 48 661 0 c628
0 662 1 677 18 25 28 21 67 -9 91 -26 21 -34 21 -678 21 l-652 0 -18 50 c-24
66 -94 143 -160 175 -64 31 -169 41 -237 22z m202 -152 c100 -71 115 -204 33
-295 -122 -135 -343 -53 -344 127 0 65 13 99 53 142 46 48 82 62 154 58 50 -2
71 -9 104 -32z"/>
<path d="M2668 1447 c-53 -15 -113 -53 -153 -94 -30 -32 -75 -114 -75 -138 0
-13 -64 -15 -569 -15 -560 0 -569 0 -595 -21 -30 -24 -34 -58 -9 -88 18 -21
21 -21 592 -24 l573 -2 20 -52 c26 -70 96 -145 166 -180 49 -24 69 -28 142
-28 72 1 94 5 142 28 70 34 140 110 166 180 l20 52 193 3 c162 2 196 5 211 19
27 24 23 68 -8 92 -25 20 -40 21 -215 21 -151 0 -189 3 -189 13 0 32 -64 138
-100 167 -85 68 -212 95 -312 67z m180 -136 c139 -71 151 -256 23 -346 -36
-25 -52 -30 -104 -30 -113 0 -191 66 -204 172 -10 89 30 164 112 206 42 23
127 21 173 -2z"/>
</g>
</svg>
